<svg width="18" height="26" viewBox="0 0 18 26" fill="none" xmlns="http://www.w3.org/2000/svg">
<path d="M1.2207 9.75391L9.04327 17.6095L16.782 9.75391" stroke="#A9B6BF" stroke-width="2" stroke-linecap="round" stroke-linejoin="round"/>
<path d="M9.05724 17.61V9.90818C9.05724 9.90818 6.02599 8.53835 4.7688 8.5663C3.63732 8.58028 1.2207 9.75442 1.2207 9.75442C1.2207 5.44924 4.69895 1.96875 9.00136 1.96875C13.3038 1.96875 16.782 5.46322 16.782 9.75442C16.782 9.75442 14.3514 8.58028 13.3317 8.53835C12.0605 8.46846 9.04327 9.90818 9.04327 9.90818" stroke="#A9B6BF" stroke-width="2" stroke-linecap="round" stroke-linejoin="round"/>
<path d="M9.00045 24.9059C10.9909 24.9059 12.6044 23.2913 12.6044 21.2996C12.6044 19.308 10.9909 17.6934 9.00045 17.6934C7.01004 17.6934 5.39648 19.308 5.39648 21.2996C5.39648 23.2913 7.01004 24.9059 9.00045 24.9059Z" stroke="#A9B6BF" stroke-width="2" stroke-linecap="round" stroke-linejoin="round"/>
</svg>
