<svg width="19" height="26" viewBox="0 0 19 26" fill="none" xmlns="http://www.w3.org/2000/svg">
<path d="M1.71484 9.31689L9.54245 17.1725L17.2862 9.31689" stroke="white" stroke-width="1.75" stroke-linecap="round" stroke-linejoin="round"/>
<path d="M9.55643 17.1725V9.47068C9.55643 9.47068 6.52323 8.10085 5.26522 8.1288C4.13301 8.14278 1.71484 9.31692 1.71484 9.31692C1.71484 5.01174 5.19533 1.53125 9.50052 1.53125C13.8057 1.53125 17.2862 5.02572 17.2862 9.31692C17.2862 9.31692 14.854 8.14278 13.8337 8.10085C12.5617 8.03096 9.54245 9.47068 9.54245 9.47068" stroke="white" stroke-width="1.75" stroke-linecap="round" stroke-linejoin="round"/>
<path d="M9.50082 24.4689C11.4925 24.4689 13.1071 22.8543 13.1071 20.8626C13.1071 18.8709 11.4925 17.2563 9.50082 17.2563C7.50912 17.2563 5.89453 18.8709 5.89453 20.8626C5.89453 22.8543 7.50912 24.4689 9.50082 24.4689Z" stroke="white" stroke-width="1.75" stroke-linecap="round" stroke-linejoin="round"/>
</svg>
