<svg width="16" height="23" viewBox="0 0 16 23" fill="none" xmlns="http://www.w3.org/2000/svg">
<g filter="url(#filter0_d_13788_25153)">
<path d="M5.69724 18.9487L5.70637 19.0004L5.69724 18.9487L5.69696 18.9487C5.69705 18.9487 5.69715 18.9487 5.69724 18.9487ZM5.65012 18.957L3.5 19.3361V15.0273L5.65012 14.6482V18.957Z" fill="#2EE09A" stroke="#2EE09A"/>
<path d="M9.79834 4.789L11.9485 4.40993V8.71872L9.79834 9.09779V4.789Z" fill="#2EE09A" stroke="#2EE09A"/>
<path d="M3.72072 5.86005L6.05768 5.44804C6.06087 5.44899 6.06555 5.45073 6.07108 5.45372C6.07901 5.458 6.08503 5.46287 6.08855 5.46648C6.08895 5.46688 6.08927 5.46723 6.08955 5.46754L11.7273 17.8844L9.39091 18.2963C9.38768 18.2954 9.38299 18.2936 9.37743 18.2906C9.36928 18.2862 9.36302 18.2811 9.35928 18.2773C9.35876 18.2767 9.35834 18.2763 9.35801 18.2759L3.72072 5.86005ZM6.08768 5.46341L6.08773 5.46353C6.08771 5.46349 6.08769 5.46345 6.08768 5.46341L6.54295 5.2567L6.08768 5.46341ZM11.8244 18.0983C11.8244 18.0982 11.8244 18.0982 11.8243 18.0981L11.8244 18.0983ZM9.37946 18.2984C9.37953 18.2984 9.3796 18.2983 9.37967 18.2983L9.37946 18.2984ZM6.06853 5.44613L6.06857 5.44612L6.06853 5.44613Z" fill="#2EE09A" stroke="#2EE09A"/>
</g>
<defs>
<filter id="filter0_d_13788_25153" x="0" y="0.873047" width="15.4482" height="22" filterUnits="userSpaceOnUse" color-interpolation-filters="sRGB">
<feFlood flood-opacity="0" result="BackgroundImageFix"/>
<feColorMatrix in="SourceAlpha" type="matrix" values="0 0 0 0 0 0 0 0 0 0 0 0 0 0 0 0 0 0 127 0" result="hardAlpha"/>
<feOffset/>
<feGaussianBlur stdDeviation="1.5"/>
<feColorMatrix type="matrix" values="0 0 0 0 0.180392 0 0 0 0 0.878431 0 0 0 0 0.603922 0 0 0 0.8 0"/>
<feBlend mode="normal" in2="BackgroundImageFix" result="effect1_dropShadow_13788_25153"/>
<feBlend mode="normal" in="SourceGraphic" in2="effect1_dropShadow_13788_25153" result="shape"/>
</filter>
</defs>
</svg>
