<svg width="25" height="27" viewBox="0 0 25 27" fill="none" xmlns="http://www.w3.org/2000/svg">
<path fill-rule="evenodd" clip-rule="evenodd" d="M5.14987 0.331814H20.7878C21.0613 0.331814 21.2967 0.567257 21.2967 0.855864V0.947003C21.2891 0.977383 21.2853 1.00776 21.2815 1.03814C21.2777 1.06852 21.2739 1.0989 21.2663 1.12928V1.34954C21.2663 2.10143 21.5701 2.78498 22.0638 3.27865C22.5499 3.78751 23.241 4.08371 23.9929 4.08371H24.1904C24.2305 4.08371 24.2663 4.07948 24.3002 4.07548C24.3305 4.07191 24.3592 4.06852 24.3878 4.06852C24.6689 4.02295 24.9271 4.20523 24.9727 4.50143V4.60776C24.8967 10.1445 23.9777 14.823 22.079 18.5217C20.1499 22.2812 17.203 25.0305 13.1625 26.6331C13.041 26.6786 12.9043 26.6786 12.798 26.6331C8.74228 25.0229 5.81063 22.2812 3.88152 18.5217C1.96759 14.8154 1.04861 10.1141 0.972656 4.56979C0.972656 4.28878 1.2005 4.06093 1.48152 4.04574C1.5119 4.04574 1.52709 4.04574 1.55747 4.06093C1.59756 4.06093 1.63341 4.06516 1.66727 4.06916L1.66728 4.06916H1.66728C1.69756 4.07273 1.72625 4.07612 1.75493 4.07612H1.96759C2.71949 4.07612 3.39544 3.77991 3.88152 3.27105C4.39038 2.77738 4.67899 2.09384 4.67899 1.34194V1.12169C4.67899 1.06093 4.6638 0.984978 4.64861 0.924219C4.61823 0.628016 4.8005 0.369788 5.08152 0.339409C5.1119 0.324219 5.14228 0.324219 5.15747 0.324219L5.14987 0.331814ZM20.241 1.36472H5.7043C5.7043 2.39764 5.28658 3.33941 4.61823 4.01536C3.94228 4.67612 3.02329 5.10903 1.99797 5.10903C2.11949 10.2584 3.0081 14.6103 4.78531 18.0508C6.56253 21.5217 9.25873 24.066 12.9803 25.5926C16.6866 24.066 19.3828 21.5217 21.16 18.0508C22.9372 14.6103 23.8258 10.2584 23.9473 5.10903C22.9372 5.10903 22.003 4.67612 21.3423 4.01536C20.6663 3.33181 20.2562 2.39764 20.241 1.36472ZM7.8002 4.07547C7.48121 4.75901 7.06349 5.35901 6.54703 5.88307C6.04577 6.40712 5.44577 6.84003 4.78501 7.16661C5.01285 10.3413 5.59766 13.478 6.85083 16.1742C8.11918 18.8704 10.0559 21.1565 12.9799 22.6223C15.8888 21.1565 17.8331 18.878 19.0939 16.1742C20.3546 13.4704 20.947 10.3413 21.1597 7.16661C20.4989 6.84003 19.9065 6.40712 19.3977 5.88307C18.8888 5.35901 18.4635 4.75901 18.1597 4.07547H7.80779H7.8002ZM5.82551 5.17674C6.31918 4.66788 6.71412 4.06788 6.97235 3.39952C7.0483 3.20205 7.23058 3.04256 7.46602 3.04256H18.4787C18.6761 3.04256 18.8812 3.16408 18.9572 3.36914C19.2306 4.05269 19.6331 4.66788 20.1192 5.17674C20.628 5.67041 21.2053 6.08813 21.866 6.36914C22.0635 6.44509 22.223 6.65015 22.2078 6.89319C21.9951 10.2805 21.3799 13.6755 20.0204 16.6071C18.6458 19.5843 16.4812 22.0831 13.2002 23.6552C13.0635 23.716 12.9116 23.7312 12.7597 23.6552C9.47868 22.0831 7.33691 19.5843 5.93944 16.6071C4.57994 13.6755 3.96475 10.2805 3.7521 6.89319C3.7521 6.67294 3.85842 6.47547 4.07868 6.38433C4.73944 6.10332 5.33184 5.6856 5.8407 5.17674H5.82551ZM8.59834 12.3923C8.40087 12.5898 8.40087 12.9316 8.59834 13.129L11.1882 15.7341C11.3933 15.9316 11.7123 15.9316 11.9097 15.7341L18.3882 9.21005C18.5857 9.01258 18.5857 8.686 18.3882 8.48853C18.1907 8.29106 17.8642 8.29106 17.6667 8.48853L11.5528 14.6404L9.31986 12.3923C9.12239 12.1949 8.79581 12.1949 8.59834 12.3923Z" fill="white"/>
</svg>
