<svg width="18" height="13" viewBox="0 0 18 13" fill="none" xmlns="http://www.w3.org/2000/svg">
<path d="M11.5273 6.5C11.5273 9.5106 9.08677 11.9512 6.07617 11.9512C3.06557 11.9512 0.625 9.5106 0.625 6.5C0.625 3.4894 3.06557 1.04883 6.07617 1.04883C9.08677 1.04883 11.5273 3.4894 11.5273 6.5Z" stroke="#2EE09A" stroke-width="1.25"/>
<path d="M5.76387 3.22852H6.51871V4.10255C6.67763 4.12904 6.84449 4.16876 7.0193 4.22174C7.1994 4.27471 7.37156 4.35152 7.53577 4.45216L7.22589 5.29441C7.08816 5.21496 6.91865 5.14609 6.71736 5.08782C6.51607 5.02426 6.32272 4.99248 6.13732 4.99248C5.96781 4.99248 5.82743 5.02956 5.71619 5.10372C5.60495 5.17258 5.54933 5.27058 5.54933 5.39771C5.54933 5.51954 5.59701 5.62019 5.69235 5.69965C5.7877 5.77381 5.96251 5.85327 6.21678 5.93802L6.58228 6.05721C6.97957 6.18964 7.28416 6.37769 7.49604 6.62136C7.70793 6.86503 7.81387 7.16697 7.81387 7.52717C7.81387 7.69668 7.78474 7.85825 7.72647 8.01187C7.6735 8.16548 7.58874 8.30586 7.47221 8.43299C7.35567 8.56012 7.20735 8.66872 7.02724 8.75877C6.85244 8.84352 6.6432 8.90179 6.39953 8.93357V9.85528H5.64468V8.94947C5.15734 8.90179 4.72562 8.75082 4.34952 8.49656L4.73886 7.67814C4.92426 7.80528 5.11496 7.90062 5.31096 7.96419C5.50695 8.02246 5.7003 8.05159 5.891 8.05159C6.16116 8.05159 6.34391 8.00657 6.43926 7.91652C6.5399 7.82117 6.59023 7.71787 6.59023 7.60663C6.59023 7.49539 6.54785 7.39739 6.46309 7.31264C6.38364 7.22788 6.22472 7.14578 5.98635 7.06632L5.58111 6.93124C5.4116 6.87827 5.25004 6.80941 5.09642 6.72465C4.9481 6.6399 4.81567 6.53925 4.69913 6.42271C4.5826 6.30617 4.4899 6.17375 4.42103 6.02542C4.35747 5.87181 4.32568 5.697 4.32568 5.501C4.32568 5.30501 4.36276 5.1249 4.43692 4.96069C4.51108 4.79118 4.61173 4.64551 4.73886 4.52367C4.866 4.40184 5.01697 4.30649 5.19177 4.23763C5.36658 4.16347 5.55728 4.12109 5.76387 4.1105V3.22852Z" fill="#2EE09A"/>
<path d="M13.667 2.42383L13.667 10.4238" stroke="#EF84F5" stroke-width="1.2"/>
<path d="M10.3335 6.42383L13.6668 10.4238L17.0002 6.42383" stroke="#EF84F5" stroke-width="1.2"/>
</svg>
