<svg width="23" height="23" viewBox="0 0 23 23" fill="none" xmlns="http://www.w3.org/2000/svg">
<g filter="url(#filter0_d_13788_25080)">
<path fill-rule="evenodd" clip-rule="evenodd" d="M17.7263 15.2981C18.8173 13.7681 19.461 12.0078 19.461 10.268C19.461 9.61828 19.3907 9.02045 19.2606 8.47345H13.0945C11.6925 8.47345 10.4666 9.41801 10.109 10.7736H16.2765L15.7457 12.9979H9.55295C9.25795 14.1651 10.1402 15.2981 11.3441 15.2981H17.7263ZM15.6156 17.5224C13.8282 18.9519 11.5646 19.873 9.14825 19.873C4.97764 19.873 2.14666 16.1827 3.23354 11.8857C4.53778 6.72929 9.08227 3.87305 13.1167 3.87305C15.0414 3.87305 16.9755 4.62346 18.1933 6.19857H13.662C10.0455 6.19857 6.89471 8.66395 6.02495 12.1743C5.35132 14.8932 7.40863 17.5224 10.2097 17.5224H15.6156Z" fill="#2EE09A"/>
</g>
<defs>
<filter id="filter0_d_13788_25080" x="0" y="0.873047" width="22.4609" height="22" filterUnits="userSpaceOnUse" color-interpolation-filters="sRGB">
<feFlood flood-opacity="0" result="BackgroundImageFix"/>
<feColorMatrix in="SourceAlpha" type="matrix" values="0 0 0 0 0 0 0 0 0 0 0 0 0 0 0 0 0 0 127 0" result="hardAlpha"/>
<feOffset/>
<feGaussianBlur stdDeviation="1.5"/>
<feColorMatrix type="matrix" values="0 0 0 0 0.180392 0 0 0 0 0.878431 0 0 0 0 0.603922 0 0 0 0.8 0"/>
<feBlend mode="normal" in2="BackgroundImageFix" result="effect1_dropShadow_13788_25080"/>
<feBlend mode="normal" in="SourceGraphic" in2="effect1_dropShadow_13788_25080" result="shape"/>
</filter>
</defs>
</svg>
