<?xml version="1.0" encoding="utf-8"?>
<!-- Generator: Adobe Illustrator 25.0.0, SVG Export Plug-In . SVG Version: 6.00 Build 0)  -->
<svg version="1.1" id="Warstwa_1" xmlns="http://www.w3.org/2000/svg" xmlns:xlink="http://www.w3.org/1999/xlink" x="0px" y="0px"
	 viewBox="0 0 32 32" style="enable-background:new 0 0 32 32;" xml:space="preserve">
<style type="text/css">
	.st0{fill:#E6E6E6;}
</style>
<path class="st0" d="M27.5,0.5H4.5c-2.2,0-4,1.8-4,4v23.1c0,2.2,1.8,4,4,4h22.9c2.2,0,4-1.8,4-4V4.5C31.5,2.3,29.7,0.5,27.5,0.5z
	 M3.4,25.6l6.8-6.5l4.5,4.4l5.8-7.4l8,9.5H3.4z"/>
<g>
	<path class="st0" d="M-89.8,124.7c-10.5,0-21,0.2-31.5,0c-15.9-0.3-27.5-10.3-30-25.3c-2.4-14.5,6.6-28.8,20.8-32.6
		c3.6-1,5.9-2.5,8.2-5.6c8.2-11.4,19.6-16.9,33.7-15.5C-73.6,47-63,55.3-57.6,69.3c1.6,4.2,3.4,6.1,7.8,7.3
		c11.5,3.2,18.7,14.9,17,26.1c-1.9,13-11.6,21.4-25.1,21.8c-0.3,0-0.7,0-1,0C-69.2,124.7-79.5,124.7-89.8,124.7z M-102.2,90
		c0,7.1,0,13.4,0,19.8c6.9,0,13.3,0,20.4,0c0-6.7,0-13,0-20c5.1,0,9.4,0,13.4,0c-8.1-8.2-16.1-16.3-23.5-23.8
		c-7.8,7.8-15.9,15.8-24.1,23.9C-111.9,90-107.5,90-102.2,90z"/>
</g>
</svg>
