<svg width="24" height="24" viewBox="0 0 24 24" fill="none" xmlns="http://www.w3.org/2000/svg">
  <!-- Outer Circle -->
  <circle cx="12" cy="12" r="11" stroke="#EF84F5" stroke-width="2" />
  
  <!-- Lock Icon -->
  <g transform="translate(6 4)"> <!-- Positioning the lock icon at the center -->
    <path d="M1 9C1 7.11438 1 6.17157 1.58579 5.58579C2.17157 5 3.11438 5 5 5H7C8.88562 5 9.82843 5 10.4142 5.58579C11 6.17157 11 7.11438 11 9V10C11 11.8856 11 12.8284 10.4142 13.4142C9.82843 14 8.88562 14 7 14H5C3.11438 14 2.17157 14 1.58579 13.4142C1 12.8284 1 11.8856 1 10V9Z" 
          stroke="#EF84F5" stroke-width="2" />
    <path d="M9 4V4C9 2.34315 7.65685 1 6 1V1C4.34315 1 3 2.34315 3 4V4" 
          stroke="#EF84F5" stroke-width="2" stroke-linecap="round" />
    <ellipse cx="5.97447" cy="8.23598" rx="1.744" ry="1.64712" fill="#EF84F5" />
    <path d="M4.97656 10.706C4.97656 11.2583 5.42428 11.706 5.97656 11.706C6.52885 11.706 6.97656 11.2583 6.97656 10.706H4.97656ZM4.97656 8.23535V10.706H6.97656V8.23535H4.97656Z" fill="#EF84F5" />
  </g>
</svg>
