<svg width="24" height="24" viewBox="0 0 24 24" fill="none" xmlns="http://www.w3.org/2000/svg">
<path d="M7 13C7 11.1144 7 10.1716 7.58579 9.58579C8.17157 9 9.11438 9 11 9H13C14.8856 9 15.8284 9 16.4142 9.58579C17 10.1716 17 11.1144 17 13V14C17 15.8856 17 16.8284 16.4142 17.4142C15.8284 18 14.8856 18 13 18H11C9.11438 18 8.17157 18 7.58579 17.4142C7 16.8284 7 15.8856 7 14V13Z" stroke="#EF84F5" stroke-width="2"/>
<path d="M15 8V8C15 6.34315 13.6569 5 12 5V5C10.3431 5 9 6.34315 9 8V8" stroke="#EF84F5" stroke-width="2" stroke-linecap="round"/>
<ellipse cx="11.9745" cy="12.236" rx="1.744" ry="1.64712" fill="#EF84F5"/>
<path d="M10.9766 14.706C10.9766 15.2583 11.4243 15.706 11.9766 15.706C12.5288 15.706 12.9766 15.2583 12.9766 14.706H10.9766ZM10.9766 12.2354V14.706H12.9766V12.2354H10.9766Z" fill="#EF84F5"/>
<circle cx="12" cy="12" r="11" stroke="#EF84F5" stroke-width="2"/>
</svg>
