<svg width="32" height="32" viewBox="0 0 32 32" fill="none" xmlns="http://www.w3.org/2000/svg">
<rect width="32" height="32" rx="10" fill="#3A466B"/>
<path d="M14.5586 22.1599V16.4199" stroke="#A9B6BF" stroke-width="2" stroke-linecap="round"/>
<path d="M14.5603 14.6802C15.1071 14.6802 15.5503 14.237 15.5503 13.6902C15.5503 13.1434 15.1071 12.7002 14.5603 12.7002C14.0136 12.7002 13.5703 13.1434 13.5703 13.6902C13.5703 14.237 14.0136 14.6802 14.5603 14.6802Z" fill="#A9B6BF"/>
<path d="M23.4303 9.00012C23.4303 7.69012 22.4503 6.62012 21.2503 6.62012C20.0503 6.62012 19.0703 7.68012 19.0703 9.00012" stroke="#EFD063" stroke-width="1.3" stroke-linecap="round"/>
<path d="M17.6094 12.6306C17.6094 11.6106 17.6094 11.1106 17.7794 10.7006C17.9994 10.1706 18.4294 9.74059 18.9594 9.52059C19.3594 9.35059 19.8694 9.35059 20.8894 9.35059H21.6194C22.6394 9.35059 23.1394 9.35059 23.5494 9.52059C24.0794 9.74059 24.5094 10.1706 24.7294 10.7006C24.8994 11.1006 24.8994 11.6106 24.8994 12.6306C24.8994 13.6506 24.8994 14.1506 24.7294 14.5606C24.5094 15.0906 24.0794 15.5206 23.5494 15.7406C23.1494 15.9106 22.6394 15.9106 21.6194 15.9106H20.8894C19.8694 15.9106 19.3694 15.9106 18.9594 15.7406C18.4294 15.5206 17.9994 15.0906 17.7794 14.5606C17.6094 14.1606 17.6094 13.6506 17.6094 12.6306Z" stroke="#EFD063" stroke-width="1.25"/>
<path d="M21.2309 13.2604C21.9323 13.2604 22.5009 12.7231 22.5009 12.0604C22.5009 11.3976 21.9323 10.8604 21.2309 10.8604C20.5295 10.8604 19.9609 11.3976 19.9609 12.0604C19.9609 12.7231 20.5295 13.2604 21.2309 13.2604Z" fill="#EFD063"/>
<path d="M20.6914 13.8605C20.6914 14.1605 20.9314 14.4105 21.2414 14.4105C21.5514 14.4105 21.7914 14.1705 21.7914 13.8605H20.7014H20.6914ZM20.6914 12.0605V13.8605H21.7814V12.0605H20.6914Z" fill="#EFD063"/>
<path d="M22.6195 18.1497C22.4095 22.5597 18.6695 25.9697 14.2495 25.7697C9.82948 25.5697 6.42948 21.8097 6.62948 17.3897C6.82948 12.9697 10.5895 9.56973 14.9995 9.77973" stroke="#A9B6BF" stroke-width="1.25" stroke-linecap="round"/>
</svg>
