<?xml version="1.0" encoding="utf-8"?>
<!-- Generator: Adobe Illustrator 25.0.0, SVG Export Plug-In . SVG Version: 6.00 Build 0)  -->
<svg version="1.1" id="Warstwa_1" xmlns="http://www.w3.org/2000/svg" xmlns:xlink="http://www.w3.org/1999/xlink" x="0px" y="0px"
	 viewBox="0 0 24 24" style="enable-background:new 0 0 24 24;" xml:space="preserve">
<style type="text/css">
	.st0{fill:#FFFFFF;}
</style>
<g>
	<path class="st0" d="M21.4,1.3c0-0.4,0-0.9,0-1.3C15.2,0,9,0,2.7,0c0,0.4,0,0.9,0,1.3l0,0c0.1,0,0.3,0,0.4,0c6,0,12,0,17.9,0
		C21.2,1.4,21.3,1.3,21.4,1.3L21.4,1.3z"/>
	<path class="st0" d="M22.8,5.4c0,0-16.2,0-22.5,0c0,0.4,0,0.9,0,1.3l0,0c0.1,0,0.3,0,0.4,0c6,0,22.1,0,22.1,0V5.4z"/>
	<path class="st0" d="M22.8,17.2c0,0-16.2,0-22.5,0c0,0.4,0,0.9,0,1.3l0,0c0.1,0,0.3,0,0.4,0c6,0,22.1,0,22.1,0V17.2z"/>
	<path class="st0" d="M2.7,22.7c0,0.4,0,0.9,0,1.3c6.2,0,12.5,0,18.8,0c0-0.4,0-0.9,0-1.3c0,0,0,0,0,0c-0.2,0-0.3,0-0.5,0
		c-5.9,0-11.9,0-17.8,0C3,22.7,2.8,22.7,2.7,22.7L2.7,22.7z"/>
	<path class="st0" d="M22.8,2.7c0-0.4,0-0.9,0-1.3c-0.5,0-0.9,0-1.3,0c0,0,0,0,0,0c0,0.4,0,0.9,0,1.3C21.9,2.7,22.4,2.7,22.8,2.7
		L22.8,2.7z"/>
	<path class="st0" d="M2.7,1.3c-0.4,0-0.9,0-1.3,0c0,0.5,0,0.9,0,1.4c0,0,0,0,0,0c0.4,0,0.9,0,1.3,0C2.7,2.2,2.7,1.8,2.7,1.3
		L2.7,1.3z"/>
	<path class="st0" d="M21.4,22.7c0.4,0,0.9,0,1.3,0c0-0.5,0-0.9,0-1.3c0,0,0,0,0,0c-0.4,0-0.9,0-1.3,0
		C21.5,21.8,21.5,22.3,21.4,22.7L21.4,22.7z"/>
	<path class="st0" d="M1.3,21.3c0,0.4,0,0.8,0,1.3c0.4,0,0.9,0,1.3,0c0,0,0,0,0,0c0-0.4,0-0.9,0-1.3C2.2,21.3,1.8,21.3,1.3,21.3
		L1.3,21.3z"/>
	<g>
		<polygon class="st0" points="1.3,21.3 1.3,21.3 1.3,21.3 		"/>
		<polygon class="st0" points="22.8,2.7 22.8,2.7 22.8,2.7 		"/>
		<polygon class="st0" points="22.8,21.3 22.8,21.3 22.8,21.3 		"/>
		<g>
			<path class="st0" d="M22.8,2.7l0,18.7c0.4,0,0.8,0,1.2,0c0-6.2,0-12.4,0-18.7C23.6,2.7,23.2,2.7,22.8,2.7z"/>
			<path class="st0" d="M0,2.7c0,6.2,0,12.4,0,18.7c0.4,0,0.9,0,1.3,0c0-0.9,0-1.8,0-2.8l0-13.1c0-1,0-1.9,0-2.8l0,0
				C0.9,2.7,0.5,2.7,0,2.7z"/>
			<path class="st0" d="M13.9,8.1c-0.5,0-1,0-1.5,0c0-0.3-0.1-0.5-0.1-0.8c-0.3,0-0.5,0-0.8,0c0,0.2,0,0.4-0.1,0.7c-0.5,0-1,0-1.5,0
				c0,0.3-0.1,0.5-0.1,0.7c-0.2,0-0.5,0.1-0.7,0.1c0,1,0,2,0,3.1c0.2,0,0.5,0,0.7,0.1c0,0.2,0,0.4,0.1,0.7c0.5,0,1,0,1.5,0
				c0,0.5,0,1,0,1.6c-0.2,0-0.4,0-0.7,0c0-0.2,0-0.5-0.1-0.7c-0.5,0-1,0-1.5,0c0,0.5,0,1,0,1.5c0.2,0,0.5,0.1,0.7,0.1
				c0,0.2,0,0.4,0.1,0.7c0.5,0,1,0,1.5,0c0,0.3,0.1,0.5,0.1,0.8c0.3,0,0.5,0,0.8,0c0-0.2,0-0.4,0.1-0.7c0.5,0,1,0,1.5,0
				c0-0.3,0-0.5,0.1-0.8c0.2,0,0.5,0,0.7-0.1c0-1,0-2,0-3.1c-0.2,0-0.4,0-0.7-0.1c0-0.2-0.1-0.5-0.1-0.8c-0.5,0-1,0-1.5,0
				c0-0.5,0-1,0-1.5c0.2,0,0.4,0,0.7,0c0,0.2,0,0.4,0.1,0.7c0.5,0,1,0,1.5,0c0-0.5,0-1,0-1.5c-0.2,0-0.5-0.1-0.7-0.1
				C13.9,8.6,13.9,8.4,13.9,8.1z M11.4,11.2c-0.3,0-0.5,0-0.7,0c0-0.5,0-1,0-1.5c0.3,0,0.5,0,0.7,0C11.4,10.2,11.4,10.7,11.4,11.2z
				 M13.1,12.8c0,0.5,0,1,0,1.5c-0.3,0-0.5,0-0.7,0c0-0.5,0-1,0-1.5C12.6,12.8,12.9,12.8,13.1,12.8z"/>
		</g>
	</g>
</g>
</svg>
