<svg width="26" height="27" viewBox="0 0 26 27" fill="none" xmlns="http://www.w3.org/2000/svg">
<path d="M25 19.4473H24.125V23.4473H25H25.875V19.4473H25ZM1 23.4473H1.875V19.4473H1H0.125V23.4473H1Z" fill="white"/>
<path d="M25 23.4473C25 24.5518 19.6274 25.4473 13 25.4473C6.37258 25.4473 1 24.5518 1 23.4473" stroke="white" stroke-width="1.75"/>
<ellipse cx="13" cy="19.4473" rx="12" ry="2" stroke="white" stroke-width="1.75"/>
<path d="M10.8785 3.42748C10.807 3.16075 10.9653 2.88658 11.232 2.81511L11.709 2.6873C11.9757 2.61583 12.2499 2.77412 12.3214 3.04086L12.5546 3.91113C12.6174 4.14562 12.8396 4.29952 13.0823 4.29278C13.2772 4.28736 13.4804 4.28913 13.6918 4.29799C13.933 4.30843 14.1744 4.34084 14.4159 4.39532C14.6413 4.44616 14.7835 4.66151 14.7663 4.89187L14.7033 5.73692C14.6797 6.05401 14.3682 6.271 14.0528 6.23047C13.9017 6.21104 13.7414 6.19734 13.5719 6.18932C13.1541 6.17011 12.7683 6.20767 12.4141 6.3026C12.0899 6.38947 11.841 6.53335 11.6669 6.73419C11.4927 6.93503 11.4399 7.16335 11.5085 7.41916C11.577 7.67496 11.7189 7.83997 11.9424 7.94541C12.166 8.05129 12.5437 8.12428 13.0755 8.16455L13.8385 8.21709C14.6694 8.28024 15.3528 8.50268 15.8891 8.88429C16.4253 9.26618 16.7909 9.81935 16.9851 10.5442C17.0765 10.8855 17.1105 11.2248 17.0869 11.5623C17.0634 11.8999 16.9744 12.2265 16.8204 12.542C16.6661 12.8575 16.4428 13.1487 16.1509 13.4153C15.9491 13.5996 15.7101 13.7651 15.4339 13.9121C15.2133 14.0294 15.0881 14.2783 15.1528 14.5196L15.4075 15.4702C15.479 15.7369 15.3207 16.0111 15.0539 16.0826L14.577 16.2104C14.3102 16.2819 14.0361 16.1236 13.9646 15.8568L13.7224 14.9529C13.656 14.7053 13.4133 14.5505 13.1579 14.572C12.5064 14.627 11.8793 14.5687 11.2765 14.3973C11.0466 14.332 10.9137 14.0991 10.9524 13.8633L11.0896 13.0269C11.1408 12.7149 11.4654 12.5309 11.7735 12.6024C11.996 12.654 12.2163 12.6857 12.4344 12.6975C12.8417 12.7197 13.2279 12.6819 13.5922 12.5842C14.1085 12.4459 14.4354 12.2585 14.5727 12.0215C14.7099 11.785 14.7487 11.5546 14.6887 11.3307C14.6287 11.1068 14.4973 10.9308 14.2948 10.8021C14.0921 10.6739 13.7415 10.5906 13.2432 10.5528L12.3958 10.4884C12.0431 10.4688 11.6999 10.4123 11.3656 10.3189C11.0315 10.2259 10.7214 10.0918 10.436 9.91688C10.1504 9.74225 9.90345 9.51982 9.69572 9.24992C9.48758 8.98013 9.33097 8.64793 9.22528 8.25348C9.11959 7.85903 9.0925 7.47515 9.1445 7.10123C9.19616 6.72765 9.31087 6.38576 9.48811 6.07526C9.6654 5.76498 9.90185 5.49326 10.1973 5.25968C10.3761 5.11852 10.5721 4.99684 10.7851 4.89454C11.0245 4.77959 11.1707 4.51802 11.1019 4.26148L10.9868 3.8317L10.8785 3.42748Z" fill="white"/>
</svg>
