<svg width="57" height="25" viewBox="0 0 57 25" fill="none" xmlns="http://www.w3.org/2000/svg">
<path d="M23.4434 18.5254C24.9676 18.5254 26.2031 19.7609 26.2031 21.2852C26.2031 22.8094 24.9676 24.0449 23.4434 24.0449C21.9191 24.0449 20.6836 22.8095 20.6836 21.2852C20.6836 19.7609 21.9191 18.5254 23.4434 18.5254ZM34.4434 18.5254C35.9676 18.5254 37.2031 19.7609 37.2031 21.2852C37.2031 22.8094 35.9676 24.0449 34.4434 24.0449C32.9191 24.0449 31.6836 22.8095 31.6836 21.2852C31.6836 19.7609 32.9191 18.5254 34.4434 18.5254ZM23.4434 20.0449C22.7585 20.0449 22.2031 20.6003 22.2031 21.2852C22.2031 21.97 22.7585 22.5254 23.4434 22.5254C24.1282 22.5253 24.6836 21.97 24.6836 21.2852C24.6836 20.6003 24.1282 20.045 23.4434 20.0449ZM34.4434 20.0449C33.7585 20.0449 33.2031 20.6003 33.2031 21.2852C33.2031 21.97 33.7585 22.5254 34.4434 22.5254C35.1282 22.5253 35.6836 21.97 35.6836 21.2852C35.6836 20.6003 35.1282 20.045 34.4434 20.0449ZM12.4805 0.150391C14.0034 0.193264 15.4378 0.828872 16.4912 1.89941C16.8013 1.57661 17.2191 1.35412 17.6953 1.29883L17.9307 1.28516H38.1289L38.3545 1.29785C39.4617 1.4214 40.2741 2.44368 40.1084 3.5752L38.3506 15.5752L38.3154 15.7559C38.1151 16.5858 37.4058 17.1982 36.5557 17.2764L36.3711 17.2852H20.5674L20.3926 17.2773C19.5862 17.2071 18.8996 16.6554 18.6582 15.8828L18.6143 15.7148L16.0918 4.2373L15.8184 3.80176C15.0302 2.55032 13.6341 1.81443 12.1562 1.87109L11.043 1.91406C10.5686 1.93198 10.1696 1.56133 10.1514 1.08691C10.1334 0.612614 10.5032 0.212756 10.9775 0.194336L12.0898 0.152344L12.4805 0.150391ZM17.9307 3.00488C17.7518 3.00488 17.6188 3.17101 17.6572 3.3457L17.707 3.57227L17.8672 3.82715C18.0206 4.07083 18.0354 4.36153 17.9346 4.60938L20.2939 15.3457L20.3086 15.3916C20.3511 15.495 20.4524 15.5654 20.5674 15.5654H36.3711C36.5099 15.5654 36.6281 15.4634 36.6484 15.3262L38.4062 3.32617L38.4082 3.26367C38.3975 3.12137 38.2784 3.00492 38.1289 3.00488H17.9307ZM26.9316 4.36914C27.2171 4.29283 27.5102 4.46176 27.5869 4.74707L27.6318 4.91602C27.7211 5.24861 28.0375 5.46635 28.3818 5.47363C28.4284 5.47462 28.4757 5.47554 28.5234 5.47754C28.6189 5.48167 28.715 5.49114 28.8105 5.50488C29.1116 5.54843 29.299 5.83625 29.2764 6.13965L29.2744 6.16406C29.2442 6.56914 28.8433 6.85318 28.4375 6.83398C28.1381 6.82023 27.8614 6.847 27.6074 6.91504C27.3751 6.97732 27.1971 7.08069 27.0723 7.22461C26.9476 7.36844 26.9091 7.5317 26.958 7.71484C27.0071 7.89823 27.1093 8.01718 27.2695 8.09277C27.4299 8.16865 27.7008 8.22114 28.082 8.25L28.6289 8.28711C29.2245 8.33239 29.7142 8.49212 30.0986 8.76562C30.4829 9.03932 30.7455 9.43561 30.8848 9.95508C30.9503 10.1997 30.9749 10.4436 30.958 10.6855C30.9411 10.9275 30.877 11.1616 30.7666 11.3877C30.656 11.6139 30.4954 11.8226 30.2861 12.0137C30.2149 12.0787 30.1369 12.1407 30.0527 12.1992C29.7512 12.409 29.5612 12.7683 29.6562 13.123L29.708 13.3164C29.7842 13.6019 29.6146 13.8952 29.3291 13.9717C29.0435 14.0482 28.7504 13.8784 28.6738 13.5928L28.6279 13.4238C28.5336 13.0718 28.1877 12.8557 27.8232 12.8574C27.5526 12.8588 27.2879 12.8315 27.0293 12.7764C26.723 12.7111 26.5489 12.4028 26.5996 12.0938C26.6669 11.6849 27.0945 11.4496 27.5068 11.4902C27.5453 11.494 27.5838 11.497 27.6221 11.499C27.914 11.515 28.191 11.4879 28.4521 11.418C28.8223 11.3188 29.0569 11.1846 29.1553 11.0146C29.2536 10.8452 29.2812 10.68 29.2383 10.5195C29.1953 10.3591 29.1012 10.2329 28.9561 10.1406C28.8108 10.0487 28.5593 9.98906 28.2021 9.96191L27.5947 9.91602C27.342 9.90193 27.096 9.86087 26.8564 9.79395C26.6169 9.72727 26.3941 9.63124 26.1895 9.50586C25.9848 9.38068 25.8081 9.22081 25.6592 9.02734C25.51 8.83396 25.397 8.5962 25.3213 8.31348C25.2455 8.0307 25.2264 7.75536 25.2637 7.4873C25.3007 7.21958 25.3828 6.97448 25.5098 6.75195C25.6369 6.52952 25.8067 6.33445 26.0186 6.16699C26.065 6.13035 26.1134 6.09548 26.1631 6.0625C26.4705 5.85808 26.6795 5.50013 26.584 5.14355L26.5527 5.02441C26.4763 4.73883 26.6461 4.44566 26.9316 4.36914Z" fill="#A9B6BF"/>
</svg>
