<svg width="24" height="21" viewBox="0 0 24 21" fill="none" xmlns="http://www.w3.org/2000/svg">
<g clip-path="url(#clip0_13788_25073)" filter="url(#filter0_d_13788_25073)">
<path d="M20.9073 14.6149L17.9359 17.7821C17.8713 17.8509 17.7931 17.9057 17.7063 17.9432C17.6194 17.9807 17.5257 18.0001 17.4311 18H3.34496C3.27775 18 3.212 17.9805 3.1558 17.9439C3.09959 17.9072 3.05538 17.8551 3.02859 17.7938C3.0018 17.7325 2.9936 17.6648 3.005 17.599C3.0164 17.5332 3.04689 17.4721 3.09275 17.4232L6.06643 14.256C6.13086 14.1874 6.20876 14.1326 6.29532 14.0952C6.38189 14.0577 6.47528 14.0383 6.56972 14.0381H20.655C20.7222 14.0381 20.788 14.0576 20.8442 14.0942C20.9004 14.1309 20.9446 14.183 20.9715 14.2443C20.9982 14.3056 21.0064 14.3733 20.995 14.4391C20.9836 14.5049 20.9531 14.566 20.9073 14.6149ZM17.9359 8.23695C17.8713 8.16815 17.7931 8.11329 17.7063 8.0758C17.6194 8.03833 17.5257 8.019 17.4311 8.01905H3.34496C3.27775 8.01905 3.212 8.03856 3.1558 8.0752C3.09959 8.11184 3.05538 8.16398 3.02859 8.22524C3.0018 8.28651 2.9936 8.35422 3.005 8.42005C3.0164 8.48587 3.04689 8.54696 3.09275 8.59582L6.06643 11.7631C6.13086 11.8317 6.20876 11.8864 6.29532 11.9239C6.38189 11.9614 6.47528 11.9808 6.56972 11.9809H20.655C20.7222 11.9809 20.788 11.9614 20.8442 11.9248C20.9004 11.8882 20.9446 11.836 20.9715 11.7748C20.9982 11.7135 21.0064 11.6458 20.995 11.5799C20.9836 11.5141 20.9531 11.453 20.9073 11.4042L17.9359 8.23695ZM3.34496 5.96191H17.4311C17.5257 5.96195 17.6194 5.94264 17.7063 5.90515C17.7931 5.86765 17.8713 5.8128 17.9359 5.744L20.9073 2.57676C20.9531 2.52792 20.9836 2.46683 20.995 2.401C21.0064 2.33517 20.9982 2.26746 20.9715 2.2062C20.9446 2.14493 20.9004 2.09278 20.8442 2.05615C20.788 2.01952 20.7222 2 20.655 2H6.56972C6.47528 2.00016 6.38189 2.01958 6.29532 2.05706C6.20876 2.09455 6.13086 2.14929 6.06643 2.21791L3.09351 5.38515C3.04771 5.43393 3.01722 5.49496 3.0058 5.56071C2.99437 5.62647 3.00251 5.69413 3.0292 5.75536C3.0559 5.8166 3.09999 5.86875 3.15608 5.90544C3.21217 5.94213 3.27782 5.96175 3.34496 5.96191Z" fill="#2EE09A"/>
</g>
<defs>
<filter id="filter0_d_13788_25073" x="0" y="0" width="24" height="21.6836" filterUnits="userSpaceOnUse" color-interpolation-filters="sRGB">
<feFlood flood-opacity="0" result="BackgroundImageFix"/>
<feColorMatrix in="SourceAlpha" type="matrix" values="0 0 0 0 0 0 0 0 0 0 0 0 0 0 0 0 0 0 127 0" result="hardAlpha"/>
<feOffset/>
<feGaussianBlur stdDeviation="1.5"/>
<feColorMatrix type="matrix" values="0 0 0 0 0.180392 0 0 0 0 0.878431 0 0 0 0 0.603922 0 0 0 0.8 0"/>
<feBlend mode="normal" in2="BackgroundImageFix" result="effect1_dropShadow_13788_25073"/>
<feBlend mode="normal" in="SourceGraphic" in2="effect1_dropShadow_13788_25073" result="shape"/>
</filter>
<clipPath id="clip0_13788_25073">
<rect width="18" height="15.6832" fill="white" transform="translate(3 3)"/>
</clipPath>
</defs>
</svg>
