<svg width="24" height="24" viewBox="0 0 24 24" fill="none" xmlns="http://www.w3.org/2000/svg">
<g filter="url(#filter0_d_13807_33098)">
<circle cx="12" cy="12" r="8.5" stroke="#2EE09A"/>
<path d="M13.456 11.9995C13.456 12.8039 12.8039 13.456 11.9995 13.456C11.1951 13.456 10.543 12.8039 10.543 11.9995C10.543 11.1951 11.1951 10.543 11.9995 10.543C12.8039 10.543 13.456 11.1951 13.456 11.9995Z" stroke="#2EE09A"/>
<mask id="path-3-inside-1_13807_33098" fill="white">
<path fill-rule="evenodd" clip-rule="evenodd" d="M10.9642 6.13086H13.0358V7.63249C13.1204 7.65248 13.2041 7.67487 13.2868 7.69958L14.0373 6.3997L15.8313 7.43551L15.0803 8.73639C15.1431 8.79568 15.2041 8.85675 15.2634 8.91954L16.5654 8.16785L17.6012 9.96192L16.3006 10.7128C16.3255 10.7962 16.3481 10.8806 16.3682 10.9659H17.8698V13.0375H16.3678C16.3478 13.1219 16.3255 13.2055 16.3008 13.288L17.6015 14.0389L16.5657 15.833L15.264 15.0815C15.2047 15.1442 15.1436 15.2053 15.0809 15.2646L15.8323 16.5661L14.0382 17.6019L13.2876 16.3017C13.2046 16.3265 13.1207 16.349 13.0358 16.3691V17.8703H10.9642V16.3693C10.8793 16.3492 10.7953 16.3267 10.7123 16.3019L9.96214 17.6013L8.16807 16.5655L8.91885 15.2651C8.856 15.2057 8.79486 15.1446 8.73552 15.0818L7.43493 15.8327L6.39912 14.0386L7.69853 13.2884C7.67382 13.2057 7.65143 13.1221 7.63143 13.0375H6.12988V10.9659H7.63101C7.65115 10.8805 7.67373 10.7961 7.69867 10.7127L6.39888 9.96228L7.43468 8.16821L8.73586 8.91945C8.79508 8.85674 8.85609 8.79575 8.9188 8.73654L8.168 7.43611L9.96207 6.4003L10.7122 7.69964C10.7952 7.67483 10.8792 7.65237 10.9642 7.63231V6.13086Z"/>
</mask>
<path d="M13.0358 6.13086H14.0358V5.13086H13.0358V6.13086ZM10.9642 6.13086V5.13086H9.96418V6.13086H10.9642ZM13.0358 7.63249H12.0358V8.42372L12.8058 8.60569L13.0358 7.63249ZM13.2868 7.69958L13.0005 8.65772L13.7577 8.88398L14.1528 8.19958L13.2868 7.69958ZM14.0373 6.3997L14.5373 5.53368L13.6712 5.03368L13.1712 5.8997L14.0373 6.3997ZM15.8313 7.43551L16.6973 7.93551L17.1973 7.06948L16.3313 6.56948L15.8313 7.43551ZM15.0803 8.73639L14.2142 8.23639L13.819 8.92093L14.3938 9.46355L15.0803 8.73639ZM15.2634 8.91954L14.5364 9.60614L15.079 10.1807L15.7634 9.78557L15.2634 8.91954ZM16.5654 8.16785L17.4314 7.66785L16.9314 6.80183L16.0654 7.30183L16.5654 8.16785ZM17.6012 9.96192L18.1012 10.8279L18.9672 10.3279L18.4672 9.46192L17.6012 9.96192ZM16.3006 10.7128L15.8006 9.84681L15.116 10.242L15.3425 10.9993L16.3006 10.7128ZM16.3682 10.9659L15.3949 11.1956L15.5767 11.9659H16.3682V10.9659ZM17.8698 10.9659H18.8698V9.96588H17.8698V10.9659ZM17.8698 13.0375V14.0375H18.8698V13.0375H17.8698ZM16.3678 13.0375V12.0375H15.5766L15.3946 12.8074L16.3678 13.0375ZM16.3008 13.288L15.3427 13.0017L15.1164 13.7589L15.8008 14.154L16.3008 13.288ZM17.6015 14.0389L18.4675 14.5389L18.9675 13.6729L18.1015 13.1729L17.6015 14.0389ZM16.5657 15.833L16.0657 16.699L16.9317 17.199L17.4317 16.333L16.5657 15.833ZM15.264 15.0815L15.764 14.2154L15.0794 13.8202L14.5368 14.395L15.264 15.0815ZM15.0809 15.2646L14.3943 14.5376L13.8197 15.0802L14.2149 15.7646L15.0809 15.2646ZM15.8323 16.5661L16.3323 17.4321L17.1983 16.9321L16.6983 16.0661L15.8323 16.5661ZM14.0382 17.6019L13.1722 18.1019L13.6722 18.9679L14.5382 18.4679L14.0382 17.6019ZM13.2876 16.3017L14.1536 15.8017L13.7584 15.1172L13.0011 15.3437L13.2876 16.3017ZM13.0358 16.3691L12.8058 15.3959L12.0358 15.5778V16.3691H13.0358ZM13.0358 17.8703V18.8703H14.0358V17.8703H13.0358ZM10.9642 17.8703H9.96418V18.8703H10.9642V17.8703ZM10.9642 16.3693H11.9642V15.5779L11.194 15.396L10.9642 16.3693ZM10.7123 16.3019L10.9986 15.3438L10.2414 15.1175L9.84627 15.8019L10.7123 16.3019ZM9.96214 17.6013L9.46214 18.4673L10.3282 18.9673L10.8282 18.1013L9.96214 17.6013ZM8.16807 16.5655L7.30204 16.0655L6.80204 16.9315L7.66807 17.4315L8.16807 16.5655ZM8.91885 15.2651L9.78487 15.7651L10.1801 15.0806L9.60534 14.5379L8.91885 15.2651ZM8.73552 15.0818L9.46261 14.3952L8.91999 13.8206L8.23552 14.2157L8.73552 15.0818ZM7.43493 15.8327L6.56891 16.3327L7.0689 17.1987L7.93493 16.6987L7.43493 15.8327ZM6.39912 14.0386L5.89912 13.1726L5.0331 13.6726L5.5331 14.5386L6.39912 14.0386ZM7.69853 13.2884L8.19853 14.1544L8.883 13.7592L8.65664 13.002L7.69853 13.2884ZM7.63143 13.0375L8.6046 12.8074L8.42257 12.0375H7.63143V13.0375ZM6.12988 13.0375H5.12988V14.0375H6.12988V13.0375ZM6.12988 10.9659V9.96588H5.12988V10.9659H6.12988ZM7.63101 10.9659V11.9659H8.42248L8.60427 11.1956L7.63101 10.9659ZM7.69867 10.7127L8.65675 10.9992L8.88322 10.2419L8.19867 9.84669L7.69867 10.7127ZM6.39888 9.96228L5.53285 9.46228L5.03285 10.3283L5.89888 10.8283L6.39888 9.96228ZM7.43468 8.16821L7.93468 7.30219L7.06866 6.80219L6.56866 7.66821L7.43468 8.16821ZM8.73586 8.91945L8.23586 9.78547L8.92025 10.1806L9.46287 9.60607L8.73586 8.91945ZM8.9188 8.73654L9.60531 9.46366L10.18 8.92104L9.78483 8.23654L8.9188 8.73654ZM8.168 7.43611L7.668 6.57008L6.80198 7.07008L7.30198 7.93611L8.168 7.43611ZM9.96207 6.4003L10.8281 5.9003L10.3281 5.03428L9.46207 5.53428L9.96207 6.4003ZM10.7122 7.69964L9.84622 8.19964L10.2414 8.88408L10.9986 8.65776L10.7122 7.69964ZM10.9642 7.63231L11.194 8.60555L11.9642 8.42369V7.63231H10.9642ZM13.0358 5.13086H10.9642V7.13086H13.0358V5.13086ZM14.0358 7.63249V6.13086H12.0358V7.63249H14.0358ZM13.5731 6.74144C13.4718 6.71119 13.3694 6.68377 13.2658 6.65929L12.8058 8.60569C12.8714 8.62119 12.9363 8.63856 13.0005 8.65772L13.5731 6.74144ZM13.1712 5.8997L12.4207 7.19958L14.1528 8.19958L14.9033 6.8997L13.1712 5.8997ZM16.3313 6.56948L14.5373 5.53368L13.5373 7.26573L15.3313 8.30153L16.3313 6.56948ZM15.9463 9.23639L16.6973 7.93551L14.9653 6.93551L14.2142 8.23639L15.9463 9.23639ZM15.9905 8.23294C15.918 8.15625 15.8434 8.08164 15.7667 8.00923L14.3938 9.46355C14.4427 9.50971 14.4902 9.55726 14.5364 9.60614L15.9905 8.23294ZM16.0654 7.30183L14.7634 8.05352L15.7634 9.78557L17.0654 9.03388L16.0654 7.30183ZM18.4672 9.46192L17.4314 7.66785L15.6994 8.66785L16.7352 10.4619L18.4672 9.46192ZM16.8006 11.5789L18.1012 10.8279L17.1012 9.0959L15.8006 9.84681L16.8006 11.5789ZM17.3415 10.7362C17.3168 10.6317 17.2892 10.5284 17.2587 10.4264L15.3425 10.9993C15.3618 11.064 15.3793 11.1294 15.3949 11.1956L17.3415 10.7362ZM17.8698 9.96588H16.3682V11.9659H17.8698V9.96588ZM18.8698 13.0375V10.9659H16.8698V13.0375H18.8698ZM16.3678 14.0375H17.8698V12.0375H16.3678V14.0375ZM17.2589 13.5743C17.2891 13.4733 17.3165 13.371 17.3409 13.2676L15.3946 12.8074C15.3791 12.8729 15.3618 12.9377 15.3427 13.0017L17.2589 13.5743ZM18.1015 13.1729L16.8008 12.422L15.8008 14.154L17.1015 14.905L18.1015 13.1729ZM17.4317 16.333L18.4675 14.5389L16.7355 13.5389L15.6996 15.333L17.4317 16.333ZM14.764 15.9475L16.0657 16.699L17.0657 14.967L15.764 14.2154L14.764 15.9475ZM15.7675 15.9916C15.8442 15.9192 15.9187 15.8446 15.9911 15.768L14.5368 14.395C14.4907 14.4439 14.4431 14.4914 14.3943 14.5376L15.7675 15.9916ZM16.6983 16.0661L15.9469 14.7646L14.2149 15.7646L14.9663 17.0661L16.6983 16.0661ZM14.5382 18.4679L16.3323 17.4321L15.3323 15.7L13.5382 16.7358L14.5382 18.4679ZM12.4216 16.8017L13.1722 18.1019L14.9042 17.1019L14.1536 15.8017L12.4216 16.8017ZM13.2658 17.3423C13.3697 17.3177 13.4725 17.2902 13.5741 17.2598L13.0011 15.3437C12.9368 15.3629 12.8717 15.3803 12.8058 15.3959L13.2658 17.3423ZM14.0358 17.8703V16.3691H12.0358V17.8703H14.0358ZM10.9642 18.8703H13.0358V16.8703H10.9642V18.8703ZM9.96418 16.3693V17.8703H11.9642V16.3693H9.96418ZM10.426 17.2601C10.5276 17.2904 10.6304 17.3179 10.7344 17.3425L11.194 15.396C11.1281 15.3805 11.063 15.363 10.9986 15.3438L10.426 17.2601ZM10.8282 18.1013L11.5783 16.8019L9.84627 15.8019L9.09611 17.1013L10.8282 18.1013ZM7.66807 17.4315L9.46214 18.4673L10.4621 16.7352L8.66807 15.6994L7.66807 17.4315ZM8.05282 14.7651L7.30204 16.0655L9.03409 17.0655L9.78487 15.7651L8.05282 14.7651ZM8.00843 15.7683C8.08091 15.8451 8.15558 15.9197 8.23235 15.9922L9.60534 14.5379C9.55641 14.4917 9.50881 14.4441 9.46261 14.3952L8.00843 15.7683ZM7.93493 16.6987L9.23552 15.9478L8.23552 14.2157L6.93493 14.9666L7.93493 16.6987ZM5.5331 14.5386L6.56891 16.3327L8.30096 15.3327L7.26515 13.5386L5.5331 14.5386ZM7.19853 12.4224L5.89912 13.1726L6.89912 14.9046L8.19853 14.1544L7.19853 12.4224ZM6.65826 13.2676C6.68275 13.3711 6.71016 13.4736 6.74042 13.5748L8.65664 13.002C8.63748 12.9379 8.62011 12.873 8.6046 12.8074L6.65826 13.2676ZM6.12988 14.0375H7.63143V12.0375H6.12988V14.0375ZM5.12988 10.9659V13.0375H7.12988V10.9659H5.12988ZM7.63101 9.96588H6.12988V11.9659H7.63101V9.96588ZM6.7406 10.4262C6.71005 10.5283 6.68241 10.6317 6.65774 10.7362L8.60427 11.1956C8.6199 11.1294 8.63741 11.0639 8.65675 10.9992L6.7406 10.4262ZM5.89888 10.8283L7.19867 11.5787L8.19867 9.84669L6.89888 9.09626L5.89888 10.8283ZM6.56866 7.66821L5.53285 9.46228L7.2649 10.4623L8.30071 8.66821L6.56866 7.66821ZM9.23586 8.05342L7.93468 7.30219L6.93468 9.03424L8.23586 9.78547L9.23586 8.05342ZM8.2323 8.00941C8.1557 8.08173 8.08118 8.15624 8.00885 8.23282L9.46287 9.60607C9.50898 9.55725 9.55648 9.50976 9.60531 9.46366L8.2323 8.00941ZM9.78483 8.23654L9.03403 6.93611L7.30198 7.93611L8.05278 9.23653L9.78483 8.23654ZM8.668 8.30213L10.4621 7.26633L9.46207 5.53428L7.668 6.57008L8.668 8.30213ZM9.09605 6.9003L9.84622 8.19964L11.5783 7.19964L10.8281 5.9003L9.09605 6.9003ZM10.7344 6.65907C10.6304 6.68363 10.5275 6.71114 10.4259 6.74152L10.9986 8.65776C11.063 8.63853 11.1281 8.6211 11.194 8.60555L10.7344 6.65907ZM9.96418 6.13086V7.63231H11.9642V6.13086H9.96418Z" fill="#2EE09A" mask="url(#path-3-inside-1_13807_33098)"/>
</g>
<defs>
<filter id="filter0_d_13807_33098" x="0" y="0" width="24" height="24" filterUnits="userSpaceOnUse" color-interpolation-filters="sRGB">
<feFlood flood-opacity="0" result="BackgroundImageFix"/>
<feColorMatrix in="SourceAlpha" type="matrix" values="0 0 0 0 0 0 0 0 0 0 0 0 0 0 0 0 0 0 127 0" result="hardAlpha"/>
<feOffset/>
<feGaussianBlur stdDeviation="1.5"/>
<feComposite in2="hardAlpha" operator="out"/>
<feColorMatrix type="matrix" values="0 0 0 0 0.180392 0 0 0 0 0.878431 0 0 0 0 0.603922 0 0 0 0.8 0"/>
<feBlend mode="normal" in2="BackgroundImageFix" result="effect1_dropShadow_13807_33098"/>
<feBlend mode="normal" in="SourceGraphic" in2="effect1_dropShadow_13807_33098" result="shape"/>
</filter>
</defs>
</svg>
