<svg width="16" height="16" viewBox="0 0 16 16" fill="none" xmlns="http://www.w3.org/2000/svg">
<circle cx="8" cy="8" r="7.7" stroke="#2EE09A" stroke-width="0.6"/>
<path d="M9.439 8.00085C9.439 8.79566 8.79468 9.43998 7.99987 9.43998C7.20506 9.43998 6.56074 8.79566 6.56074 8.00085C6.56074 7.20604 7.20506 6.56172 7.99987 6.56172C8.79468 6.56172 9.439 7.20604 9.439 8.00085Z" stroke="#2EE09A" stroke-width="0.6"/>
<mask id="path-3-inside-1_13342_26851" fill="white">
<path fill-rule="evenodd" clip-rule="evenodd" d="M7.07927 2.7832H8.9207V4.11858C8.99562 4.13628 9.06972 4.1561 9.14294 4.17796L9.81063 3.02148L11.4054 3.9422L10.7373 5.09925C10.7932 5.15196 10.8475 5.20627 10.9003 5.26211L12.0579 4.59375L12.9786 6.18848L11.8225 6.85599C11.8445 6.92981 11.8646 7.00453 11.8824 7.08008H13.217V8.92151H11.8827C11.8649 8.99692 11.845 9.0715 11.823 9.14519L12.9788 9.8125L12.0581 11.4072L10.9016 10.7395C10.8488 10.7954 10.7944 10.8498 10.7385 10.9026L11.406 12.0586L9.81123 12.9793L9.14452 11.8245C9.07079 11.8466 8.99616 11.8666 8.9207 11.8844V13.2189H7.07927V11.8846C7.00361 11.8667 6.92878 11.8467 6.85485 11.8246L6.18856 12.9787L4.59383 12.0579L5.26078 10.9028C5.20475 10.8499 5.15026 10.7953 5.09738 10.7393L3.94204 11.4063L3.02132 9.81161L4.17606 9.14492C4.15409 9.07132 4.13418 8.99683 4.1164 8.92151H2.78223L2.78223 7.08008H4.11673C4.13454 7.00472 4.15449 6.93019 4.17651 6.85656L3.02091 6.18937L3.94163 4.59464L5.09845 5.26254C5.15126 5.20662 5.20566 5.15224 5.26159 5.09945L4.59383 3.94285L6.18856 3.02213L6.85593 4.17805C6.9295 4.15607 7.00397 4.13616 7.07927 4.11838V2.7832Z"/>
</mask>
<path d="M8.9207 2.7832H9.5207V2.1832H8.9207V2.7832ZM7.07927 2.7832V2.1832H6.47927V2.7832H7.07927ZM8.9207 4.11858H8.3207V4.59331L8.7827 4.70249L8.9207 4.11858ZM9.14294 4.17796L8.97127 4.75288L9.42552 4.88852L9.66256 4.47796L9.14294 4.17796ZM9.81063 3.02148L10.1106 2.50187L9.59102 2.20187L9.29102 2.72148L9.81063 3.02148ZM11.4054 3.9422L11.925 4.2422L12.225 3.72259L11.7054 3.42259L11.4054 3.9422ZM10.7373 5.09925L10.2177 4.79925L9.98054 5.21006L10.3255 5.53563L10.7373 5.09925ZM10.9003 5.26211L10.4641 5.67414L10.7897 6.01877L11.2003 5.78172L10.9003 5.26211ZM12.0579 4.59375L12.5775 4.29375L12.2775 3.77413L11.7579 4.07413L12.0579 4.59375ZM12.9786 6.18848L13.2786 6.70809L13.7982 6.40809L13.4982 5.88848L12.9786 6.18848ZM11.8225 6.85599L11.5225 6.33637L11.1117 6.57355L11.2476 7.02798L11.8225 6.85599ZM11.8824 7.08008L11.2985 7.21812L11.4077 7.68008H11.8824V7.08008ZM13.217 7.08008H13.817V6.48008H13.217V7.08008ZM13.217 8.92151V9.52151H13.817V8.92151H13.217ZM11.8827 8.92151V8.32151H11.4079L11.2988 8.78368L11.8827 8.92151ZM11.823 9.14519L11.2481 8.97347L11.1124 9.42775L11.523 9.66481L11.823 9.14519ZM12.9788 9.8125L13.4984 10.1125L13.7984 9.59288L13.2788 9.29288L12.9788 9.8125ZM12.0581 11.4072L11.7581 11.9268L12.2777 12.2268L12.5777 11.7072L12.0581 11.4072ZM10.9016 10.7395L11.2016 10.2199L10.7908 9.98273L10.4652 10.3277L10.9016 10.7395ZM10.7385 10.9026L10.3266 10.4664L9.98184 10.792L10.2189 11.2026L10.7385 10.9026ZM11.406 12.0586L11.706 12.5782L12.2256 12.2782L11.9256 11.7586L11.406 12.0586ZM9.81123 12.9793L9.29161 13.2793L9.59161 13.7989L10.1112 13.4989L9.81123 12.9793ZM9.14452 11.8245L9.66414 11.5245L9.427 11.1138L8.97261 11.2497L9.14452 11.8245ZM8.9207 11.8844L8.7827 11.3005L8.3207 11.4097V11.8844H8.9207ZM8.9207 13.2189V13.8189H9.5207V13.2189H8.9207ZM7.07927 13.2189H6.47927V13.8189H7.07927V13.2189ZM7.07927 11.8846H7.67927V11.4098L7.21713 11.3006L7.07927 11.8846ZM6.85485 11.8246L7.02673 11.2498L6.57236 11.1139L6.33524 11.5246L6.85485 11.8246ZM6.18856 12.9787L5.88856 13.4983L6.40817 13.7983L6.70817 13.2787L6.18856 12.9787ZM4.59383 12.0579L4.07422 11.7579L3.77422 12.2776L4.29383 12.5776L4.59383 12.0579ZM5.26078 10.9028L5.78039 11.2028L6.01749 10.7921L5.67273 10.4665L5.26078 10.9028ZM5.09738 10.7393L5.53375 10.3275L5.20818 9.98251L4.79738 10.2197L5.09738 10.7393ZM3.94204 11.4063L3.42242 11.7063L3.72242 12.2259L4.24204 11.9259L3.94204 11.4063ZM3.02132 9.81161L2.72132 9.29199L2.20171 9.59199L2.50171 10.1116L3.02132 9.81161ZM4.17606 9.14492L4.47606 9.66453L4.88663 9.42749L4.75098 8.97324L4.17606 9.14492ZM4.1164 8.92151L4.70035 8.78368L4.59127 8.32151H4.1164V8.92151ZM2.78223 8.92151H2.18223V9.52151H2.78223V8.92151ZM2.78223 7.08008V6.48008H2.18223V7.08008H2.78223ZM4.11673 7.08008V7.68008H4.59142L4.70063 7.21812L4.11673 7.08008ZM4.17651 6.85656L4.75136 7.02846L4.88724 6.57408L4.47651 6.33694L4.17651 6.85656ZM3.02091 6.18937L2.5013 5.88937L2.2013 6.40899L2.72091 6.70899L3.02091 6.18937ZM3.94163 4.59464L4.24163 4.07503L3.72201 3.77503L3.42201 4.29464L3.94163 4.59464ZM5.09845 5.26254L4.79845 5.78215L5.20909 6.01923L5.53466 5.67451L5.09845 5.26254ZM5.26159 5.09945L5.67342 5.5358L6.01837 5.21023L5.78121 4.79945L5.26159 5.09945ZM4.59383 3.94285L4.29383 3.42324L3.77422 3.72324L4.07422 4.24285L4.59383 3.94285ZM6.18856 3.02213L6.70817 2.72213L6.40817 2.20252L5.88856 2.50252L6.18856 3.02213ZM6.85593 4.17805L6.33631 4.47805L6.57336 4.88863L7.02764 4.75295L6.85593 4.17805ZM7.07927 4.11838L7.21714 4.70233L7.67927 4.59322V4.11838H7.07927ZM8.9207 2.1832H7.07927V3.3832H8.9207V2.1832ZM9.5207 4.11858V2.7832H8.3207V4.11858H9.5207ZM9.31461 3.60305C9.23029 3.57787 9.14496 3.55505 9.05869 3.53466L8.7827 4.70249C8.84628 4.71752 8.90915 4.73433 8.97127 4.75288L9.31461 3.60305ZM9.29102 2.72148L8.62333 3.87796L9.66256 4.47796L10.3302 3.32148L9.29102 2.72148ZM11.7054 3.42259L10.1106 2.50187L9.51063 3.5411L11.1054 4.46182L11.7054 3.42259ZM11.257 5.39925L11.925 4.2422L10.8857 3.6422L10.2177 4.79925L11.257 5.39925ZM11.3364 4.85007C11.2758 4.78589 11.2133 4.72347 11.1491 4.66287L10.3255 5.53563C10.3731 5.58046 10.4193 5.62666 10.4641 5.67414L11.3364 4.85007ZM11.7579 4.07413L10.6003 4.74249L11.2003 5.78172L12.3579 5.11337L11.7579 4.07413ZM13.4982 5.88848L12.5775 4.29375L11.5383 4.89375L12.459 6.48848L13.4982 5.88848ZM12.1225 7.37561L13.2786 6.70809L12.6786 5.66886L11.5225 6.33637L12.1225 7.37561ZM12.4663 6.94204C12.4458 6.85505 12.4227 6.76901 12.3973 6.684L11.2476 7.02798C11.2664 7.09061 11.2834 7.15401 11.2985 7.21812L12.4663 6.94204ZM13.217 6.48008H11.8824V7.68008H13.217V6.48008ZM13.817 8.92151V7.08008H12.617V8.92151H13.817ZM11.8827 9.52151H13.217V8.32151H11.8827V9.52151ZM12.3979 9.31691C12.4232 9.23205 12.4462 9.14617 12.4667 9.05934L11.2988 8.78368C11.2837 8.84767 11.2668 8.91095 11.2481 8.97347L12.3979 9.31691ZM13.2788 9.29288L12.123 8.62558L11.523 9.66481L12.6788 10.3321L13.2788 9.29288ZM12.5777 11.7072L13.4984 10.1125L12.4592 9.5125L11.5385 11.1072L12.5777 11.7072ZM10.6016 11.2591L11.7581 11.9268L12.3581 10.8876L11.2016 10.2199L10.6016 11.2591ZM11.1505 11.3388C11.2148 11.2781 11.2773 11.2156 11.3379 11.1513L10.4652 10.3277C10.4203 10.3752 10.3741 10.4215 10.3266 10.4664L11.1505 11.3388ZM11.9256 11.7586L11.2582 10.6026L10.2189 11.2026L10.8863 12.3586L11.9256 11.7586ZM10.1112 13.4989L11.706 12.5782L11.106 11.539L9.51123 12.4597L10.1112 13.4989ZM8.6249 12.1245L9.29161 13.2793L10.3308 12.6793L9.66414 11.5245L8.6249 12.1245ZM9.05869 12.4683C9.14558 12.4478 9.23152 12.4248 9.31643 12.3994L8.97261 11.2497C8.91005 11.2684 8.84673 11.2854 8.7827 11.3005L9.05869 12.4683ZM9.5207 13.2189V11.8844H8.3207V13.2189H9.5207ZM7.07927 13.8189H8.9207V12.6189H7.07927V13.8189ZM6.47927 11.8846V13.2189H7.67927V11.8846H6.47927ZM6.68298 12.3995C6.76811 12.4249 6.85427 12.448 6.9414 12.4685L7.21713 11.3006C7.15294 11.2855 7.08945 11.2685 7.02673 11.2498L6.68298 12.3995ZM6.70817 13.2787L7.37447 12.1246L6.33524 11.5246L5.66894 12.6787L6.70817 13.2787ZM4.29383 12.5776L5.88856 13.4983L6.48856 12.459L4.89383 11.5383L4.29383 12.5776ZM4.74116 10.6028L4.07422 11.7579L5.11345 12.3579L5.78039 11.2028L4.74116 10.6028ZM4.661 11.1511C4.7218 11.2155 4.78443 11.2782 4.84883 11.339L5.67273 10.4665C5.62508 10.4215 5.57873 10.3752 5.53375 10.3275L4.661 11.1511ZM4.24204 11.9259L5.39738 11.2589L4.79738 10.2197L3.64204 10.8867L4.24204 11.9259ZM2.50171 10.1116L3.42242 11.7063L4.46165 11.1063L3.54094 9.51161L2.50171 10.1116ZM3.87606 8.6253L2.72132 9.29199L3.32132 10.3312L4.47606 9.66453L3.87606 8.6253ZM3.53244 9.05934C3.55291 9.14606 3.57584 9.23184 3.60115 9.3166L4.75098 8.97324C4.73233 8.9108 4.71544 8.84759 4.70035 8.78368L3.53244 9.05934ZM2.78223 9.52151H4.1164V8.32151H2.78223V9.52151ZM2.18223 7.08008L2.18223 8.92151H3.38223L3.38223 7.08008H2.18223ZM4.11673 6.48008H2.78223V7.68008H4.11673V6.48008ZM3.60167 6.68465C3.57631 6.76945 3.55333 6.85527 3.53282 6.94204L4.70063 7.21812C4.71575 7.15417 4.73268 7.09094 4.75136 7.02846L3.60167 6.68465ZM2.72091 6.70899L3.87651 7.37617L4.47651 6.33694L3.32091 5.66976L2.72091 6.70899ZM3.42201 4.29464L2.5013 5.88937L3.54053 6.48937L4.46125 4.89464L3.42201 4.29464ZM5.39845 4.74292L4.24163 4.07503L3.64163 5.11426L4.79845 5.78215L5.39845 4.74292ZM4.84977 4.6631C4.78548 4.72378 4.72294 4.78629 4.66225 4.85056L5.53466 5.67451C5.57958 5.62695 5.62585 5.58069 5.67342 5.5358L4.84977 4.6631ZM5.78121 4.79945L5.11345 3.64285L4.07422 4.24285L4.74198 5.39945L5.78121 4.79945ZM4.89383 4.46247L6.48856 3.54175L5.88856 2.50252L4.29383 3.42324L4.89383 4.46247ZM5.66894 3.32213L6.33631 4.47805L7.37554 3.87805L6.70817 2.72213L5.66894 3.32213ZM6.94139 3.53444C6.8547 3.55491 6.76895 3.57783 6.68421 3.60314L7.02764 4.75295C7.09006 4.73431 7.15325 4.71741 7.21714 4.70233L6.94139 3.53444ZM6.47927 2.7832V4.11838H7.67927V2.7832H6.47927Z" fill="#2EE09A" mask="url(#path-3-inside-1_13342_26851)"/>
</svg>
