<svg width="32" height="25" viewBox="0 0 32 25" fill="none" xmlns="http://www.w3.org/2000/svg">
<path d="M21.2705 1.1826C21.0072 1.15052 20.742 1.22433 20.5331 1.38781L12.1974 7.91269C11.7625 8.2531 11.6859 8.88162 12.0263 9.31651L13.8754 11.6789C14.2159 12.1138 14.8444 12.1903 15.2793 11.8499L25.9774 3.4759C26.6789 2.92677 26.3663 1.80357 25.4819 1.6958L21.2705 1.1826Z" stroke="#A9B6BF" stroke-width="2"/>
<path d="M30.0371 19.347C30.472 19.0066 30.5486 18.378 30.2082 17.9431L22.1952 7.70632C21.8548 7.27143 21.2263 7.19484 20.7914 7.53526L18.4291 9.3844C17.9942 9.72482 17.9176 10.3533 18.258 10.7882L26.2709 21.0251C26.6114 21.4599 27.2399 21.5365 27.6748 21.1961L30.0371 19.347Z" stroke="#A9B6BF" stroke-width="2"/>
<path d="M11.1791 10.7469C13.0597 10.9751 14 11.5228 14 13.1203C14 14.3527 13.1045 15.3112 11.7612 15.5395V16.6349C11.7164 16.8631 11.5821 17 11.4029 17H10.7313C10.5074 16.9543 10.3731 16.8174 10.3731 16.6349V15.5395C8.89549 15.3112 8.17903 14.4896 8 13.3486V13.3029C8 13.1203 8.13433 12.9834 8.31336 12.9834H9.07463C9.20896 12.9834 9.34329 13.0747 9.388 13.2572C9.52233 13.9419 9.92531 14.444 11.0896 14.444C11.9403 14.444 12.5672 13.942 12.5672 13.2117C12.5672 12.4813 12.1642 12.2075 10.9104 11.9793C9.02982 11.751 8.13433 11.1577 8.13433 9.65151C8.13433 8.5104 8.98501 7.59758 10.3283 7.41497V6.36522C10.3731 6.13693 10.5074 6 10.6866 6H11.3582C11.5821 6.04568 11.7164 6.18261 11.7164 6.36522V7.46065C12.7462 7.5519 13.5522 8.32779 13.7313 9.33198V9.37765C13.7313 9.56015 13.597 9.69708 13.4179 9.69708H12.7015C12.5672 9.69708 12.4329 9.60583 12.388 9.4689C12.1642 8.78426 11.7164 8.5104 10.9104 8.5104C10.0149 8.5104 9.56714 8.92108 9.56714 9.56015C9.56714 10.1992 9.8358 10.5643 11.1791 10.7469Z" fill="white"/>
<path fill-rule="evenodd" clip-rule="evenodd" d="M20.5111 14.2871C19.5318 17.8841 16.364 20.6342 12.4353 20.9013C7.47615 21.2384 3.18271 17.4915 2.8456 12.5324C2.50848 7.57327 6.25535 3.27982 11.2145 2.94271C12.8398 2.83223 14.3935 3.16041 15.76 3.82616L17.6242 2.57396C15.7335 1.3988 13.4695 0.784804 11.0788 0.947315C5.01768 1.35934 0.438172 6.60689 0.850201 12.668C1.26223 18.7292 6.50977 23.3087 12.5709 22.8967C16.7954 22.6095 20.3001 19.9734 21.8967 16.35L20.5111 14.2871Z" fill="#A9B6BF"/>
</svg>
