<?xml version="1.0" encoding="utf-8"?>
<!-- Generator: Adobe Illustrator 25.0.0, SVG Export Plug-In . SVG Version: 6.00 Build 0)  -->
<svg version="1.1" id="Warstwa_1" xmlns="http://www.w3.org/2000/svg" xmlns:xlink="http://www.w3.org/1999/xlink" x="0px" y="0px"
	 viewBox="0 0 32 22" style="enable-background:new 0 0 32 22;" xml:space="preserve">
<style type="text/css">
	.st0{fill:#E6E6E6;}
</style>
<g>
	<path class="st0" d="M16.6,21.6c-2.7,0-5.5,0-8.2,0c-4.1-0.1-7.2-2.8-7.8-6.8C0,10.9,2.3,7.1,6,6.1c0.9-0.3,1.5-0.7,2.1-1.5
		c2.1-3.1,5.1-4.5,8.8-4.2C20.8,0.8,23.6,3,25,6.8c0.4,1.1,0.9,1.6,2,2c3,0.9,4.9,4,4.4,7c-0.5,3.5-3,5.7-6.5,5.9
		c-0.1,0-0.2,0-0.3,0C22,21.6,19.3,21.6,16.6,21.6z M13.4,12.3c0,1.9,0,3.6,0,5.3c1.8,0,3.5,0,5.3,0c0-1.8,0-3.5,0-5.4
		c1.3,0,2.4,0,3.5,0C20,10.1,18,7.9,16,5.9c-2,2.1-4.1,4.2-6.3,6.4C10.9,12.3,12,12.3,13.4,12.3z"/>
</g>
</svg>
